<svg width="101" height="101" viewBox="0 0 101 101" fill="none" xmlns="http://www.w3.org/2000/svg">
<circle cx="50.5" cy="50.5" r="50.5" fill="white"/>
<path fill-rule="evenodd" clip-rule="evenodd" d="M56.7524 22.6536C57.8943 19.7083 61.2078 18.2464 64.1531 19.3884C67.0985 20.5304 68.5604 23.8438 67.4184 26.7892L52.0544 66.4147C50.9124 69.3601 47.599 70.822 44.6536 69.68C41.7083 68.538 40.2464 65.2245 41.3884 62.2792L56.7524 22.6536ZM35.7524 32.6536C36.8943 29.7083 40.2078 28.2464 43.1531 29.3884C46.0985 30.5304 47.5604 33.8438 46.4184 36.7892L31.0544 76.4147C29.9124 79.3601 26.599 80.822 23.6536 79.68C20.7083 78.538 19.2464 75.2245 20.3884 72.2792L35.7524 32.6536ZM78.1531 29.3884C75.2078 28.2464 71.8943 29.7083 70.7524 32.6536L55.3884 72.2792C54.2464 75.2245 55.7083 78.538 58.6536 79.68C61.599 80.822 64.9124 79.3601 66.0544 76.4147L81.4184 36.7892C82.5604 33.8438 81.0985 30.5304 78.1531 29.3884Z" fill="#68BED9"/>
</svg>
