<svg width="571" height="846" viewBox="0 0 571 846" fill="none" xmlns="http://www.w3.org/2000/svg">
<path fill-rule="evenodd" clip-rule="evenodd" d="M235.669 477.428C242.992 458.542 264.239 449.168 283.125 456.49C302.012 463.813 311.386 485.06 304.063 503.947L205.544 758.04C198.221 776.926 176.974 786.3 158.088 778.978C139.201 771.655 129.827 750.408 137.15 731.521L235.669 477.428ZM101.01 541.552C108.332 522.665 129.579 513.291 148.466 520.614C167.352 527.937 176.727 549.184 169.404 568.07L70.8847 822.163C63.5618 841.05 42.3149 850.424 23.4283 843.101C4.54176 835.778 -4.83247 814.531 2.49039 795.645L101.01 541.552ZM372.898 520.614C354.012 513.291 332.765 522.665 325.442 541.552L226.923 795.645C219.6 814.531 228.974 835.778 247.861 843.101C266.747 850.424 287.994 841.05 295.317 822.163L393.836 568.07C401.159 549.184 391.785 527.937 372.898 520.614Z" fill="#68BED9"/>
<path fill-rule="evenodd" clip-rule="evenodd" d="M409.669 23.4283C416.992 4.54178 438.239 -4.83248 457.125 2.49039C476.012 9.81325 485.386 31.0602 478.063 49.9467L379.544 304.04C372.221 322.926 350.974 332.3 332.088 324.978C313.201 317.655 303.827 296.408 311.15 277.521L409.669 23.4283ZM275.01 87.5518C282.332 68.6653 303.579 59.291 322.466 66.6139C341.352 73.9367 350.727 95.1837 343.404 114.07L244.885 368.163C237.562 387.05 216.315 396.424 197.428 389.101C178.542 381.778 169.168 360.531 176.49 341.645L275.01 87.5518ZM546.898 66.6139C528.012 59.291 506.765 68.6653 499.442 87.5519L400.923 341.645C393.6 360.531 402.974 381.778 421.861 389.101C440.747 396.424 461.994 387.05 469.317 368.163L567.836 114.07C575.159 95.1837 565.785 73.9368 546.898 66.6139Z" fill="#68BED9"/>
</svg>
