<svg width="468" height="462" viewBox="0 0 468 462" fill="none" xmlns="http://www.w3.org/2000/svg">
<g filter="url(#filter0_i_58_63)">
<path fill-rule="evenodd" clip-rule="evenodd" d="M277.959 27.6324C286.596 5.35676 311.655 -5.69964 333.931 2.93728C356.207 11.5742 367.263 36.6338 358.626 58.9095L242.428 358.598C233.791 380.874 208.732 391.93 186.456 383.293C164.18 374.656 153.124 349.597 161.761 327.321L277.959 27.6324ZM119.135 103.263C127.772 80.9869 152.832 69.9305 175.107 78.5674C197.383 87.2044 208.439 112.264 199.803 134.54L83.6046 434.228C74.9677 456.504 49.9081 467.56 27.6324 458.924C5.35676 450.287 -5.69964 425.227 2.93727 402.951L119.135 103.263ZM439.813 78.5675C417.537 69.9306 392.478 80.987 383.841 103.263L267.643 402.951C259.006 425.227 270.062 450.287 292.338 458.924C314.614 467.56 339.673 456.504 348.31 434.228L464.508 134.54C473.145 112.264 462.089 87.2044 439.813 78.5675Z" fill="#68BED9"/>
</g>
<defs>
<filter id="filter0_i_58_63" x="0" y="0" width="467.446" height="461.861" filterUnits="userSpaceOnUse" color-interpolation-filters="sRGB">
<feFlood flood-opacity="0" result="BackgroundImageFix"/>
<feBlend mode="normal" in="SourceGraphic" in2="BackgroundImageFix" result="shape"/>
<feColorMatrix in="SourceAlpha" type="matrix" values="0 0 0 0 0 0 0 0 0 0 0 0 0 0 0 0 0 0 127 0" result="hardAlpha"/>
<feOffset/>
<feGaussianBlur stdDeviation="10"/>
<feComposite in2="hardAlpha" operator="arithmetic" k2="-1" k3="1"/>
<feColorMatrix type="matrix" values="0 0 0 0 0 0 0 0 0 0 0 0 0 0 0 0 0 0 0.15 0"/>
<feBlend mode="normal" in2="shape" result="effect1_innerShadow_58_63"/>
</filter>
</defs>
</svg>
