<svg width="1382" height="728" viewBox="0 0 1382 728" fill="none" xmlns="http://www.w3.org/2000/svg">
<g filter="url(#filter0_d_516_82)">
<mask id="path-1-outside-1_516_82" maskUnits="userSpaceOnUse" x="6" y="6" width="1370" height="716" fill="black">
<rect fill="white" x="6" y="6" width="1370" height="716"/>
<path fill-rule="evenodd" clip-rule="evenodd" d="M1161.04 9C1146.68 9 1135.04 20.6406 1135.04 35V61V62.5473C1135.04 75.8724 1124.97 87.0406 1111.72 88.4097L1106 89L26 89C16.6112 89 9 96.6112 9 106V702C9 711.389 16.6111 719 26 719H1356C1365.39 719 1373 711.389 1373 702V106C1373 101.805 1371.48 97.9641 1368.96 94.9991L1369 95L1367.25 91.6247C1365.34 87.9289 1364.34 83.8276 1364.34 79.6655V50L1364.69 35.646C1365.06 21.0382 1353.31 9 1338.7 9H1161.04Z"/>
</mask>
<path fill-rule="evenodd" clip-rule="evenodd" d="M1161.04 9C1146.68 9 1135.04 20.6406 1135.04 35V61V62.5473C1135.04 75.8724 1124.97 87.0406 1111.72 88.4097L1106 89L26 89C16.6112 89 9 96.6112 9 106V702C9 711.389 16.6111 719 26 719H1356C1365.39 719 1373 711.389 1373 702V106C1373 101.805 1371.48 97.9641 1368.96 94.9991L1369 95L1367.25 91.6247C1365.34 87.9289 1364.34 83.8276 1364.34 79.6655V50L1364.69 35.646C1365.06 21.0382 1353.31 9 1338.7 9H1161.04Z" fill="white"/>
<path d="M1111.72 88.4097L1112.02 91.3938L1111.72 88.4097ZM1106 89V92H1106.15L1106.31 91.9841L1106 89ZM26 89V86V89ZM1368.96 94.9991L1369.03 91.9999L1362.35 91.8475L1366.67 96.9415L1368.96 94.9991ZM1369 95L1368.93 97.9992L1373.99 98.1146L1371.66 93.6201L1369 95ZM1367.25 91.6247L1364.59 93.0046V93.0046L1367.25 91.6247ZM1364.34 50L1361.34 49.9254L1361.34 49.9627V50H1364.34ZM1364.69 35.646L1367.69 35.7206V35.7206L1364.69 35.646ZM1138.04 35C1138.04 22.2974 1148.34 12 1161.04 12V6C1145.03 6 1132.04 18.9838 1132.04 35H1138.04ZM1138.04 61V35H1132.04V61H1138.04ZM1138.04 62.5473V61H1132.04V62.5473H1138.04ZM1112.02 91.3938C1126.81 89.8667 1138.04 77.4099 1138.04 62.5473H1132.04C1132.04 74.3349 1123.13 84.2144 1111.41 85.4255L1112.02 91.3938ZM1106.31 91.9841L1112.02 91.3938L1111.41 85.4255L1105.69 86.0159L1106.31 91.9841ZM26 92L1106 92V86L26 86V92ZM12 106C12 98.268 18.268 92 26 92V86C14.9543 86 6 94.9543 6 106H12ZM12 702V106H6V702H12ZM26 716C18.268 716 12 709.732 12 702H6C6 713.046 14.9543 722 26 722V716ZM1356 716H26V722H1356V716ZM1370 702C1370 709.732 1363.73 716 1356 716V722C1367.05 722 1376 713.046 1376 702H1370ZM1370 106V702H1376V106H1370ZM1366.67 96.9415C1368.75 99.3846 1370 102.543 1370 106H1376C1376 101.067 1374.21 96.5436 1371.25 93.0567L1366.67 96.9415ZM1369.07 92.0008L1369.03 91.9999L1368.89 97.9983L1368.93 97.9992L1369.07 92.0008ZM1364.59 93.0046L1366.34 96.3799L1371.66 93.6201L1369.92 90.2447L1364.59 93.0046ZM1361.34 79.6655C1361.34 84.3079 1362.45 88.8824 1364.59 93.0046L1369.92 90.2448C1368.22 86.9755 1367.34 83.3473 1367.34 79.6655H1361.34ZM1361.34 50V79.6655H1367.34V50H1361.34ZM1361.7 35.5715L1361.34 49.9254L1367.34 50.0746L1367.69 35.7206L1361.7 35.5715ZM1338.7 12C1351.63 12 1362.02 22.6492 1361.7 35.5715L1367.69 35.7206C1368.1 19.4272 1355 6 1338.7 6V12ZM1161.04 12H1338.7V6H1161.04V12Z" fill="#E2E2E2" mask="url(#path-1-outside-1_516_82)"/>
</g>
<defs>
<filter id="filter0_d_516_82" x="0" y="0" width="1382" height="728" filterUnits="userSpaceOnUse" color-interpolation-filters="sRGB">
<feFlood flood-opacity="0" result="BackgroundImageFix"/>
<feColorMatrix in="SourceAlpha" type="matrix" values="0 0 0 0 0 0 0 0 0 0 0 0 0 0 0 0 0 0 127 0" result="hardAlpha"/>
<feOffset/>
<feGaussianBlur stdDeviation="3"/>
<feComposite in2="hardAlpha" operator="out"/>
<feColorMatrix type="matrix" values="0 0 0 0 0 0 0 0 0 0 0 0 0 0 0 0 0 0 0.09 0"/>
<feBlend mode="normal" in2="BackgroundImageFix" result="effect1_dropShadow_516_82"/>
<feBlend mode="normal" in="SourceGraphic" in2="effect1_dropShadow_516_82" result="shape"/>
</filter>
</defs>
</svg>
