<svg width="137" height="62" viewBox="0 0 137 62" fill="none" xmlns="http://www.w3.org/2000/svg">
<path fill-rule="evenodd" clip-rule="evenodd" d="M46.7763 4.48287C43.4522 3.12741 39.6586 4.72331 38.3031 8.04742L25.9345 38.38L12.4254 8.47119C10.9477 5.19958 7.09758 3.74534 3.82598 5.22304C0.55437 6.70075 -0.899876 10.5508 0.577831 13.8224L20.1167 57.081C21.0974 59.2522 23.123 60.623 25.331 60.8676C28.2634 61.3589 31.2486 59.7773 32.4183 56.9088L50.3408 12.956C51.6963 9.63189 50.1004 5.83834 46.7763 4.48287Z" fill="black"/>
<path fill-rule="evenodd" clip-rule="evenodd" d="M77.7524 3.65362C78.8943 0.708279 82.2078 -0.75362 85.1531 0.388375C88.0985 1.53037 89.5604 4.84381 88.4184 7.78915L73.0544 47.4147C71.9124 50.3601 68.599 51.822 65.6536 50.68C62.7083 49.538 61.2464 46.2245 62.3884 43.2792L77.7524 3.65362ZM56.7523 13.6536C57.8943 10.7083 61.2078 9.24638 64.1531 10.3884C67.0985 11.5304 68.5604 14.8438 67.4184 17.7892L52.0544 57.4147C50.9124 60.3601 47.599 61.822 44.6536 60.68C41.7083 59.538 40.2464 56.2245 41.3884 53.2792L56.7523 13.6536ZM99.1531 10.3884C96.2078 9.24638 92.8943 10.7083 91.7524 13.6536L76.3884 53.2792C75.2464 56.2245 76.7083 59.538 79.6536 60.68C82.599 61.822 85.9124 60.3601 87.0544 57.4147L102.418 17.7892C103.56 14.8438 102.098 11.5304 99.1531 10.3884Z" fill="url(#paint0_linear_14_10)"/>
<path d="M97.5 44.5C99.5 43.7 101 44.1667 101.5 44.5L105.5 46.5C108.667 48.3333 116.5 50.9 122.5 46.5C128.5 42.1 123.667 38.3333 120.5 37C119 36.6667 115.7 36 114.5 36C113.3 36 110.667 35.6667 109.5 35.5C108.167 35.3333 105.2 34.8 104 34L101 32C99.8 31.2 100.167 29.3333 100.5 28.5L102 25L105 17C105 17 105.5 15 105 13.5C104.494 11.9821 103.333 10.1667 102.5 9.5C102.167 9.33333 101.8 8.7 103 7.5C104.2 6.3 107.5 5.66667 109 5.5L114.5 5H118C120.5 5 125.833 6.5 127 7C127.833 7.33333 129.8 8.3 131 9.5C132.5 11 132 14.5 130.5 16C129.3 17.2 126.333 16.8333 125 16.5L123 16L121.5 15.5C117.9 14.7 114 15.1666 112.5 15.5C110.667 15.8333 107 17.4 107 21C107 24.6 111 26.1666 113 26.5C114.167 26.5 117.2 26.6 120 27C123.5 27.5 126.5 28.5 128 29C129.5 29.5 134 32 135.5 35.5C136.7 38.3 136.667 42 136.5 43.5C136.5 44.6666 136 47.8 134 51C132 54.2 129.5 56 128.5 56.5C127.833 57 125.6 58.2 122 59C118.4 59.8 113.167 59.3333 111 59L108 58.5L106 58L102.5 57L99.5 55.5L98 54.5C96 53.7 95.1667 51.1666 95 50C95 48.5 95.5 45.3 97.5 44.5Z" fill="black"/>
<defs>
<linearGradient id="paint0_linear_14_10" x1="103" y1="39.5" x2="41" y2="31" gradientUnits="userSpaceOnUse">
<stop stop-color="#88D8CC"/>
<stop offset="1" stop-color="#6FD142"/>
</linearGradient>
</defs>
</svg>
